<svg xmlns="http://www.w3.org/2000/svg" xmlns:xlink="http://www.w3.org/1999/xlink">
    <symbol id="main" viewBox="-7700 -1780 10820 3310">
      <title>Main Logo</title>
      <path id="logoArcDark" class="brandPrimary" fill="#12381F" fill-rule="evenodd"
          d="m -2138.4365,-869.1599 c 5.9038,-186.3735 -92.5967,-448.7436 -344.9455,-558.0333 -522.9853,-245.0266 -1262.6209,-210.9683 -1699.5408,-10.6413 -576.0673,264.1259 -666.0675,813.7639 726.6403,998.4364 -489.862,-110.9369 -756.1838,-335.7285 -730.802,-544.8432 55.4863,-457.136 1682.6612,-697.2157 2048.648,115.0814 z" />
      <path id="logoArcLight" class="brandSecondary" fill="#00A650" fill-rule="evenodd"
          d="m -2333.489,-844.0624 c 24.8798,-848.9824 -2618.2156,-473.4146 -1464.1541,251.7855 -557.9938,-674.7163 1196.0363,-806.5536 1464.1541,-251.7855 z" />
      <path id="logoGraphDark" class="brandPrimary" fill="#12381f" fill-rule="evenodd"
          d="m -934.2981,-1756.6653 c -312.4591,684.9923 -738.6488,1102.3451 -1152.0427,1454.2155 -1432.7579,-45.439 -2883.4073,12.5221 -4379.6672,334.0768 l 842.61,451.9859 c 981.7359,-483.7086 2040.0266,-551.5258 3110.9916,-523.2227 -355.3392,396.7108 -891.1449,635.8067 -1525.7428,822.9092 1224.2522,-53.4102 3104.8965,-579.3998 3103.8511,-2539.9647 z" />
      <path id="logoGraphLight" class="brandSecondary" fill="#00A650" fill-rule="evenodd"
          d="m 849.0083,-1777.9199 -1561.4466,19.6517 c 54.1373,866.5377 -327.0712,1504.752 -1047.3117,1965.1564 -964.5553,683.9383 -3343.8716,1157.0618 -5150.8697,49.1287 l -785.4837,417.5959 c 1442.9356,183.1216 2781.1131,713.9385 4385.4203,330.6228 754.5453,-180.2828 1445.9493,-389.0811 2474.4717,-1042.9919 l 3713.1962,9.8257 238.0254,-255.4702 -3684.6333,9.8257 c 518.6628,-359.3593 976.259,-907.787 1418.6314,-1503.3448 z" />
      <path id="logoBrandTextMain" class="brandPrimary" fill="#12381F" fill-rule="nonzero"
          d="m -283.7228,291.6411 -356.0621,442.2976 c -87.1766,108.4332 -191.1674,191.9373 -312.4716,250.8186 -102.8652,49.858 -200.1205,74.7868 -291.7662,74.7868 -56.7424,0 -99.7862,-9.9408 -128.6873,-29.9758 -30.0469,-20.6468 -38.8248,-47.8699 -26.6155,-81.9749 10.5671,-29.5172 34.4204,-54.7521 71.5599,-75.7044 37.1394,-20.9525 76.741,-31.3526 118.6639,-31.3526 42.3129,0 74.4681,10.4001 96.801,31.3526 22.1376,20.9523 27.923,46.1872 17.3559,75.7044 -1.8069,5.0468 -4.7768,11.1645 -8.91,18.3526 41.0384,-12.2352 82.1603,-37.7759 123.5609,-76.6222 22.9291,-21.5643 53.3276,-55.8224 91.6945,-103.0802 l 308.6419,-381.7339 h -329.1444 c -49.1378,0 -97.2029,11.1645 -144.6394,33.6464 -51.2681,24.4701 -83.7222,55.2107 -96.9723,92.2218 -9.1982,25.6935 -3.3396,40.3756 17.3802,44.0462 17.1792,-27.8349 43.8925,-50.1639 79.8886,-66.8342 34.023,-16.0586 69.2932,-24.1642 105.7562,-24.1642 39.7783,0 70.5071,9.4821 92.7166,28.5996 23.9168,20.3408 30.099,46.6461 18.5462,78.916 -12.8117,35.7877 -41.5502,63.7753 -85.9663,83.8103 -38.1651,17.2819 -81.0638,25.9993 -128.6418,25.9993 -73.5116,0 -129.9205,-13.4586 -169.0322,-40.3755 -43.2263,-30.1289 -55.4377,-71.7282 -36.5485,-124.4918 28.3613,-79.2221 90.4541,-141.0092 186.3329,-185.5143 84.6031,-39.1521 179.1619,-58.7282 283.8722,-58.7282 z m 1423.027,325.7585 c -36.5813,47.7167 -91.5855,71.7282 -165.0971,71.7282 H 634.9232 L 444.097,922.0527 H 239.5516 L 430.3778,689.1278 H 255.0813 c -257.0559,181.5375 -477.1596,272.3829 -660.2562,272.3829 -53.2324,0 -95.483,-7.7999 -126.3617,-23.3995 -39.2044,-19.5761 -51.8108,-48.6343 -38.123,-86.8689 11.6623,-32.576 40.2096,-64.387 85.6423,-95.4335 73.0317,-49.858 169.8779,-86.716 290.3982,-110.7272 94.1761,-18.5057 194.1767,-27.682 300.0566,-27.682 h 110.95 L 680.1168,291.6411 h 275.327 L 691.4104,617.3996 Z M 696.9904,365.9692 356.6106,617.3996 H 484.1347 Z M 114.4926,689.1278 c -142.7332,0 -248.7076,16.0585 -317.7826,48.3284 -57.2139,26.9172 -91.1865,55.3635 -102.0273,85.6455 -9.1437,25.5407 3.4167,38.3873 37.5399,38.3873 47.3832,0 113.7161,-20.7995 199.6951,-62.7046 C 6.8457,762.6911 67.7042,726.1389 114.4926,689.1278 Z M 1814.7267,387.0746 c -14.5157,39.458 -45.0958,75.8574 -91.7947,109.3508 l -494.0575,353.8991 c -66.4699,47.8698 -130.9736,71.7282 -192.9806,71.7282 H 889.6507 l 242.996,-517.543 H 868.0442 L 993.662,291.6411 h 276.4969 c 30.8083,0 54.0594,7.494 69.6126,22.3291 15.6931,14.9879 19.4338,33.9523 11.221,56.8931 -1.095,3.0585 -2.385,6.1174 -3.815,9.0232 l -222.6319,455.7559 472.0427,-341.9698 c -33.9618,-5.3529 -59.1656,-17.7409 -75.556,-37.317 -16.391,-19.576 -19.8231,-42.6696 -10.2961,-69.281 10.567,-29.5172 34.4748,-54.9048 71.8645,-76.0102 37.1392,-20.9526 76.7955,-31.5054 118.5234,-31.5054 42.3131,0 74.6086,10.5528 96.6369,31.8113 22.2227,21.2584 27.813,46.4933 16.9657,75.7043 z m 836.6702,12.0821 c -10.567,29.5172 -34.4203,54.7521 -71.3647,75.7044 -37.1395,20.9525 -76.741,31.3526 -119.0545,31.3526 -41.5328,0 -73.2981,-10.4001 -95.2406,-31.3526 -22.1379,-20.9523 -27.7282,-46.1872 -17.1611,-75.7044 4.9277,-13.7645 11.7331,-25.6935 20.8066,-35.7874 h -67.467 c -21.6438,0 -42.4914,7.035 -62.7928,21.2584 -20.1063,14.2232 -33.1553,29.9759 -39.342,47.2579 -5.0373,14.0703 -6.1647,34.1053 -3.4378,60.2577 2.9218,26.1525 1.794,46.1872 -3.2429,60.2575 -5.9679,16.6703 -34.0245,33.4937 -84.2554,50.1639 -72.1087,23.8584 -119.7671,42.058 -142.6711,54.2932 -55.1105,29.211 -91.1366,67.7514 -108.2192,115.4682 -12.8665,35.9404 4.745,59.1871 52.5301,70.0458 23.6278,5.3526 67.1548,7.9526 130.3317,7.9526 h 416.5007 c -13.3374,23.0938 -37.207,41.2934 -71.664,54.752 -29.9849,11.3174 -61.0648,16.9762 -93.4331,16.9762 h -469.1481 c -70.0016,0 -125.884,-9.4822 -167.5074,-28.2935 -53.637,-24.4704 -71.6953,-61.1754 -54.1747,-110.1155 19.0535,-53.2228 70.3381,-101.704 153.7135,-145.5974 68.4391,-35.9405 143.3187,-62.0929 224.6385,-78.4574 -8.2845,-37.317 -7.0492,-71.2692 3.8463,-101.704 20.8602,-58.2693 75.7671,-102.1626 164.9152,-131.6798 68.7146,-23.0936 144.7725,-34.564 228.2289,-34.564 h 174.3217 c 38.413,0 67.339,10.7056 86.8324,31.9641 19.2435,21.4115 23.8587,46.6463 13.5108,75.5515 z m 29.6911,-284.465 -225.4318,138.409 h -85.2112 l 153.4802,-138.409 z" />
      <path id="logoBrandTextSub" class="brandSub" fill="#231F20" fill-rule="evenodd"
          d="m 1970.4918,1256.039 c 38.4595,-5.3323 33.6664,-98.097 -7.7014,-94.2249 l -632.2553,0.9695 c -54.6764,2.0543 -84.8462,46.9026 -80.0866,106.3052 l 3.0784,143.028 c 4.9297,125.5622 78.7649,106.0865 150.9382,107.2718 l 494.4083,4.8298 c 49.9948,-1.472 71.6797,-24.9411 78.5474,-59.917 l 3.1313,-133.9537 c -0.7612,-17.4895 -13.6545,-35.6617 -40.0795,-34.4823 l -440.5126,-3.1007 c -33.2983,1.7203 -39.5581,69.1006 -7.6038,80.6933 l 357.8719,1.8296 c 19.2646,2.0868 21.077,-4.2711 20.8205,15.1662 -0.2231,16.7771 4.9632,44.0739 -6.377,43.8404 l -483.2103,-3.6918 c -17.0256,2.3232 -45.5447,-9.2487 -48.6146,-33.4626 l 1.5419,-110.6532 c 0.081,-32.694 23.7567,-20.9181 43.1244,-24.1636 z m -1379.1586,2.1045 H 905.997 c 77.2258,0.5527 131.2303,3.3194 130.2488,67.3774 v 55.5867 c 2.7158,52.2525 -42.7229,75.8043 -126.8219,76.3127 H 569.6233 c -55.0781,1.1557 -86.7536,-20.8324 -90.8022,-70.0139 v -54.2744 c -0.8226,-65.725 52.404,-76.4043 112.5121,-74.9885 z m -50.4828,-91.343 h 424.2872 c 104.1276,0.9754 176.9478,5.8702 175.6234,119.0536 v 98.227 c 3.6638,92.3272 -57.6071,133.9449 -171.0003,134.8464 h -458.185 c -74.2618,2.0483 -116.9707,-36.8086 -122.4303,-123.7178 v -95.9008 c -1.1153,-116.1392 70.6564,-135.0149 151.705,-132.5084 z m -951.9687,272.5274 0.382,-238.3111 c 4.4948,-48.0524 82.7272,-46.1193 83.3657,-5.8022 l -0.58,178.0631 c -5.1166,38.1031 26.8294,54.0851 51.7934,48.1972 l 587.1037,8.4772 c 26.7429,2.6425 30.9254,75.8014 -4.7151,83.9032 l -636.6803,1.3361 c -39.2263,-2.9558 -81.6927,-30.8201 -80.6694,-75.8635 z" />
    </symbol>
</svg>
